<?xml version="1.0" encoding="UTF-8"?>
<svg xmlns="http://www.w3.org/2000/svg" xmlns:xlink="http://www.w3.org/1999/xlink" width="60px" height="100px" viewBox="0 0 60 99" version="1.1">
<g id="surface1">
<path style=" stroke:none;fill-rule:nonzero;fill:rgb(100%,83.529412%,0%);fill-opacity:1;" d="M 30 0.246094 C 27.6875 2.851562 26.28125 6.261719 26.28125 10.003906 C 26.417969 18.222656 27.429688 26.429688 27.519531 34.628906 C 27.703125 42.289062 25.394531 49.480469 22.582031 56.5 C 21.644531 58.4375 20.632812 60.332031 19.617188 62.234375 L 16.644531 61.636719 C 13.957031 61.105469 12.214844 58.511719 12.75 55.847656 C 13.21875 53.515625 15.289062 51.882812 17.59375 51.882812 L 18.679688 51.996094 L 16.257812 31.902344 C 15.464844 22.960938 10.820312 15.105469 3.984375 10.007812 C 2.808594 9.132812 1.5625 8.328125 0.265625 7.621094 L 0.265625 78.964844 L 16.847656 78.964844 C 18.085938 85.640625 21.789062 91.476562 26.996094 95.464844 C 28.234375 96.3125 29.273438 97.429688 30.019531 98.738281 C 30.761719 97.429688 31.800781 96.3125 33.042969 95.464844 C 38.25 91.464844 41.953125 85.640625 43.191406 78.964844 L 59.773438 78.964844 L 59.773438 7.621094 C 58.476562 8.328125 57.230469 9.132812 56.054688 10.007812 C 49.210938 15.113281 44.574219 22.960938 43.78125 31.902344 L 41.359375 51.996094 L 42.445312 51.882812 C 44.753906 51.890625 46.820312 53.511719 47.289062 55.847656 C 47.824219 58.511719 46.078125 61.105469 43.394531 61.636719 L 40.421875 62.234375 C 39.40625 60.335938 38.390625 58.441406 37.457031 56.5 C 34.644531 49.484375 32.332031 42.292969 32.515625 34.628906 C 32.605469 26.40625 33.621094 18.203125 33.757812 10.003906 C 33.757812 6.261719 32.347656 2.863281 30.039062 0.246094 Z M 5.207031 17.902344 C 8.414062 21.644531 10.570312 26.300781 11.207031 31.429688 L 13.191406 48.003906 C 10.648438 49.261719 8.726562 51.566406 8 54.355469 L 5.1875 54.355469 L 5.1875 17.910156 Z M 54.792969 17.902344 L 54.792969 54.351562 L 51.984375 54.351562 C 51.261719 51.5625 49.332031 49.257812 46.792969 48 L 48.777344 31.425781 C 49.417969 26.300781 51.574219 21.640625 54.777344 17.894531 Z M 30 51.222656 C 31.332031 55.550781 33.164062 59.671875 35.441406 63.484375 C 33.273438 64.136719 31.390625 65.40625 30 67.117188 C 28.609375 65.40625 26.726562 64.136719 24.558594 63.480469 C 26.835938 59.660156 28.667969 55.550781 30 51.222656 Z M 5.207031 59.285156 L 8.015625 59.285156 C 8.902344 62.6875 11.574219 65.371094 14.957031 66.308594 L 17.339844 66.851562 C 16.703125 69.144531 16.355469 71.554688 16.355469 74.066406 L 5.195312 74.066406 L 5.195312 59.289062 Z M 51.992188 59.285156 L 54.800781 59.285156 L 54.800781 74.0625 L 43.644531 74.0625 C 43.644531 71.566406 43.292969 69.144531 42.65625 66.847656 L 45.039062 66.308594 C 48.4375 65.371094 51.105469 62.683594 51.980469 59.285156 Z M 22.191406 67.980469 C 25.199219 68.402344 27.515625 70.960938 27.515625 74.058594 L 21.316406 74.058594 C 21.316406 71.949219 21.632812 69.914062 22.191406 67.980469 Z M 37.800781 67.980469 C 38.359375 69.914062 38.675781 71.945312 38.675781 74.058594 L 32.476562 74.058594 C 32.476562 70.953125 34.796875 68.402344 37.800781 67.980469 Z M 21.886719 78.988281 L 27.519531 78.988281 L 27.519531 89.355469 C 24.792969 86.511719 22.808594 82.953125 21.886719 78.988281 Z M 32.480469 78.988281 L 38.113281 78.988281 C 37.203125 82.953125 35.214844 86.515625 32.480469 89.355469 Z M 32.480469 78.988281 "/>
</g>
</svg>
